<?xml version="1.0" standalone="no"?>
<!DOCTYPE svg PUBLIC "-//W3C//DTD SVG 20010904//EN"
 "http://www.w3.org/TR/2001/REC-SVG-20010904/DTD/svg10.dtd">
<svg version="1.0" xmlns="http://www.w3.org/2000/svg"
 width="500.000000pt" height="500.000000pt" viewBox="0 0 500.000000 500.000000"
 preserveAspectRatio="xMidYMid meet">
<metadata>
Created by potrace 1.11, written by Peter Selinger 2001-2013
</metadata>
<g transform="translate(0.000000,500.000000) scale(0.100000,-0.100000)"
fill="#000000" stroke="none">
<path d="M2343 4663 c20 -2 54 -2 75 0 20 2 3 4 -38 4 -41 0 -58 -2 -37 -4z"/>
<path d="M2595 4659 c4 -6 19 -7 35 -4 15 3 78 -1 139 -10 61 -9 119 -15 128
-13 22 5 -216 38 -270 38 -24 0 -36 -4 -32 -11z"/>
<path d="M2225 4649 c4 -5 17 -6 30 -3 13 3 33 1 44 -6 12 -6 21 -7 21 -1 0 5
-12 12 -27 14 -46 8 -74 6 -68 -4z"/>
<path d="M2118 4643 c-16 -2 -28 -8 -28 -13 0 -5 15 -5 33 0 17 5 43 11 57 13
21 4 20 4 -5 4 -16 0 -42 -2 -57 -4z"/>
<path d="M2458 4643 c7 -3 16 -2 19 1 4 3 -2 6 -13 5 -11 0 -14 -3 -6 -6z"/>
<path d="M2010 4619 c-82 -23 -230 -71 -230 -76 0 -2 9 -1 21 2 12 4 31 8 42
9 12 2 37 10 54 20 18 9 54 19 80 23 52 7 123 33 88 32 -11 -1 -36 -5 -55 -10z"/>
<path d="M2928 4623 c7 -3 16 -2 19 1 4 3 -2 6 -13 5 -11 0 -14 -3 -6 -6z"/>
<path d="M2960 4603 c0 -10 4 -14 8 -8 4 6 11 13 16 18 5 4 2 7 -7 7 -10 0
-17 -8 -17 -17z"/>
<path d="M3004 4601 c3 -5 20 -12 38 -15 80 -16 89 -15 33 4 -67 22 -79 24
-71 11z"/>
<path d="M3030 4571 c0 -6 4 -13 10 -16 6 -3 7 1 4 9 -7 18 -14 21 -14 7z"/>
<path d="M3140 4560 c0 -5 7 -10 15 -10 8 0 15 5 15 10 0 6 -7 10 -15 10 -8 0
-15 -4 -15 -10z"/>
<path d="M1958 4553 c7 -3 16 -2 19 1 4 3 -2 6 -13 5 -11 0 -14 -3 -6 -6z"/>
<path d="M3198 4543 c7 -3 16 -2 19 1 4 3 -2 6 -13 5 -11 0 -14 -3 -6 -6z"/>
<path d="M1693 4512 c-35 -14 -61 -27 -60 -29 6 -6 102 30 117 43 17 17 19 17
-57 -14z"/>
<path d="M3235 4530 c3 -5 24 -15 46 -22 23 -6 43 -18 46 -25 6 -16 23 -17 23
-2 0 5 -17 17 -37 25 -21 8 -46 19 -55 24 -22 13 -31 13 -23 0z"/>
<path d="M1547 4441 c-40 -23 -45 -30 -31 -35 10 -4 15 -4 11 0 -8 9 51 47 62
40 4 -3 8 1 8 9 0 8 -1 15 -1 15 -1 0 -23 -13 -49 -29z"/>
<path d="M3405 4450 c10 -11 24 -20 31 -20 7 0 25 -5 39 -12 19 -9 22 -14 13
-21 -9 -6 -6 -7 8 -4 13 3 33 -5 50 -19 30 -24 50 -31 39 -14 -10 15 -139 85
-152 82 -7 -2 -13 1 -13 6 0 6 -8 13 -17 16 -15 6 -15 4 2 -14z"/>
<path d="M3447 4409 c7 -7 15 -10 18 -7 3 3 -2 9 -12 12 -14 6 -15 5 -6 -5z"/>
<path d="M1470 4400 c-9 -6 -10 -10 -3 -10 6 0 15 5 18 10 8 12 4 12 -15 0z"/>
<path d="M1365 4334 c-44 -30 -95 -65 -112 -77 -18 -12 -33 -26 -33 -31 0 -5
9 -1 20 9 17 15 22 16 37 4 16 -12 17 -12 5 2 -11 14 -5 21 40 53 29 20 59 36
66 36 6 0 12 4 12 9 0 5 9 12 19 16 11 3 22 12 25 20 7 19 13 22 -79 -41z"/>
<path d="M2324 4371 c-88 -21 -208 -110 -243 -180 -14 -26 -19 -62 -21 -131
-4 -141 0 -248 10 -314 22 -137 101 -272 175 -296 82 -27 35 -130 -67 -147
-25 -3 -61 4 -124 27 -111 40 -233 69 -299 70 -27 1 -97 -4 -154 -11 -90 -11
-107 -17 -133 -41 -17 -15 -34 -28 -38 -28 -15 0 -64 -86 -85 -149 -17 -51
-20 -73 -13 -103 4 -22 6 -43 3 -49 -4 -5 -2 -9 4 -9 5 0 8 -9 6 -19 -4 -22
29 -32 160 -51 179 -26 238 -68 314 -226 28 -58 58 -138 67 -177 9 -40 25 -93
35 -120 10 -26 21 -80 24 -120 11 -135 8 -129 93 -195 l78 -61 154 -30 c215
-43 196 -49 205 61 5 72 4 93 -6 97 -32 10 -109 96 -129 144 -62 143 42 324
199 346 5 0 12 31 15 69 19 193 17 182 37 169 11 -7 19 -19 19 -27 0 -12 2
-12 9 -2 9 14 14 -17 27 -156 4 -40 9 -70 12 -68 2 3 17 -1 32 -9 115 -59 166
-188 128 -319 -19 -63 -99 -138 -167 -156 l-55 -15 -17 -80 c-9 -44 -16 -81
-15 -82 2 -2 72 11 157 28 l155 31 137 109 c75 60 137 116 137 125 0 9 6 14
13 11 23 -8 407 350 407 379 0 21 -58 162 -97 237 -68 129 -139 190 -287 247
-41 16 -114 49 -163 74 -48 24 -113 54 -144 66 -31 11 -64 29 -73 39 -27 30
-77 180 -78 236 -1 41 7 65 41 131 42 79 43 82 42 178 -1 172 -29 268 -107
363 -90 110 -248 165 -380 134z"/>
<path d="M3605 4341 c3 -6 -4 -15 -17 -20 -22 -10 -22 -10 4 -8 15 1 24 6 21
11 -4 5 1 7 11 3 10 -4 20 -7 22 -7 3 0 2 -5 -2 -12 -4 -7 -3 -8 4 -4 17 10
15 14 -19 32 -17 8 -28 11 -24 5z"/>
<path d="M3677 4301 c6 -7 9 -19 6 -27 -2 -7 8 -19 25 -28 28 -14 30 -14 28 1
-2 9 -18 28 -37 42 -19 14 -29 19 -22 12z m49 -48 c-6 -6 -36 9 -36 18 0 5 9
4 20 -3 10 -7 18 -14 16 -15z"/>
<path d="M3753 4235 c0 -8 3 -13 6 -12 12 4 100 -77 94 -86 -3 -6 -1 -7 6 -3
11 7 71 -44 71 -60 0 -5 -5 -3 -12 4 -7 7 -16 12 -22 12 -5 0 -1 -6 9 -14 11
-8 23 -12 28 -9 11 6 68 -57 61 -68 -3 -5 0 -8 8 -7 7 2 12 -4 10 -12 -2 -8
-1 -12 3 -8 9 8 49 -32 98 -100 21 -29 43 -52 49 -52 12 0 -45 70 -156 194
-90 99 -253 242 -253 221z"/>
<path d="M1115 4139 c-94 -86 -227 -230 -220 -237 2 -3 14 6 26 19 15 18 19
20 15 6 -4 -11 -2 -16 5 -12 6 4 8 13 5 21 -7 19 183 216 202 209 7 -2 11 -1
7 4 -3 5 7 19 21 30 15 12 25 24 22 27 -3 3 -40 -27 -83 -67z"/>
<path d="M1180 4165 c-11 -13 -10 -14 4 -9 9 3 16 10 16 15 0 13 -6 11 -20 -6z"/>
<path d="M1089 4083 c-13 -16 -12 -17 4 -4 16 13 21 21 13 21 -2 0 -10 -8 -17
-17z"/>
<path d="M1009 4003 c-13 -16 -12 -17 4 -4 9 7 17 15 17 17 0 8 -8 3 -21 -13z"/>
<path d="M828 3817 c-60 -83 -68 -97 -43 -77 10 8 21 15 24 15 3 0 5 6 4 14
-1 8 5 20 13 28 8 8 14 10 14 4 0 -6 5 -11 12 -11 9 0 9 3 0 12 -17 17 -15 31
3 25 8 -4 17 -1 21 5 4 7 3 8 -4 4 -16 -9 -15 7 0 22 6 6 9 14 7 17 -3 2 -26
-23 -51 -58z"/>
<path d="M4086 3853 c-6 -14 -5 -15 5 -6 7 7 10 15 7 18 -3 3 -9 -2 -12 -12z"/>
<path d="M4170 3791 c0 -5 7 -11 14 -14 10 -4 13 -1 9 9 -6 15 -23 19 -23 5z"/>
<path d="M4209 3738 c4 -12 14 -24 20 -26 8 -3 7 5 -4 22 -21 32 -27 33 -16 4z"/>
<path d="M727 3663 c-56 -95 -91 -169 -74 -154 9 7 19 21 22 32 4 11 11 16 17
13 7 -4 8 -2 4 5 -4 6 -4 21 -1 32 6 17 9 19 17 8 8 -11 9 -10 5 3 -3 9 2 27
12 40 10 13 22 34 26 47 5 18 9 20 16 10 6 -9 9 -10 9 -2 0 32 -22 18 -53 -34z"/>
<path d="M4234 3685 c-3 -8 1 -24 10 -37 11 -15 16 -17 16 -8 0 8 11 -3 25
-25 35 -57 31 -33 -6 31 -33 58 -37 62 -45 39z m26 -28 c0 -5 -4 -5 -10 -2 -5
3 -10 14 -10 23 0 15 2 15 10 2 5 -8 10 -19 10 -23z"/>
<path d="M4326 3545 c4 -11 7 -36 7 -55 -1 -23 1 -29 6 -17 6 17 8 16 20 -6 7
-14 11 -29 8 -34 -4 -5 0 -10 8 -10 12 0 12 5 1 31 -16 38 -60 119 -50 91z"/>
<path d="M1063 3509 c-178 -68 -160 -291 46 -591 39 -57 87 -121 107 -143 29
-32 32 -34 15 -8 -11 17 -21 35 -21 40 0 4 -9 14 -20 21 -11 7 -20 17 -20 24
0 7 6 4 13 -6 8 -11 20 -16 28 -14 8 3 30 -9 49 -26 25 -22 29 -24 14 -6 -11
14 -26 32 -33 40 -50 61 -156 224 -189 292 -92 185 -77 298 46 345 37 14 73
18 172 17 108 -2 144 -7 264 -38 77 -19 141 -34 143 -32 6 6 -235 77 -310 91
-113 21 -240 19 -304 -6z m151 -647 c3 -5 -1 -9 -9 -9 -8 0 -12 4 -9 9 3 4 7
8 9 8 2 0 6 -4 9 -8z"/>
<path d="M620 3459 c-7 -11 -9 -23 -6 -27 3 -3 6 1 6 9 0 12 2 12 9 0 6 -9 9
-5 9 13 0 31 -4 32 -18 5z"/>
<path d="M595 3400 c-4 -12 -5 -24 -2 -27 3 -2 8 5 12 17 4 12 5 24 2 27 -3 2
-8 -5 -12 -17z"/>
<path d="M4401 3380 c0 -14 28 -72 29 -59 0 4 -7 22 -15 40 -8 19 -14 27 -14
19z"/>
<path d="M605 3359 c-4 -6 -5 -12 -2 -15 2 -3 7 2 10 11 7 17 1 20 -8 4z"/>
<path d="M580 3358 c-2 -5 -3 -11 -5 -15 -1 -5 -7 -21 -15 -38 -18 -43 -60
-198 -55 -203 2 -2 7 8 11 23 5 20 9 24 16 13 6 -8 7 -2 3 18 -4 19 0 46 9 68
8 20 13 36 10 36 -3 0 5 17 17 39 12 21 19 45 16 52 -3 8 -6 11 -7 7z"/>
<path d="M4427 3303 c-4 -3 -7 -11 -7 -17 0 -6 5 -5 12 2 6 6 9 14 7 17 -3 3
-9 2 -12 -2z"/>
<path d="M4433 3269 c-7 -7 -13 -18 -13 -23 0 -6 4 -5 9 3 7 10 12 2 21 -30
18 -64 33 -104 37 -93 2 5 -7 42 -20 82 -18 59 -24 71 -34 61z"/>
<path d="M4497 3060 c3 -30 9 -64 14 -75 10 -23 2 37 -12 95 -6 26 -7 22 -2
-20z"/>
<path d="M3975 3079 c204 -35 370 -102 436 -177 33 -38 39 -51 39 -91 0 -50
-26 -104 -76 -160 -42 -48 -176 -145 -270 -198 -74 -41 -82 -49 -70 -62 7 -9
11 -22 9 -28 -7 -20 0 -17 115 48 278 159 390 298 352 438 -23 85 -104 148
-245 190 -83 25 -303 61 -360 60 -26 -1 -1 -8 70 -20z"/>
<path d="M497 3083 c-9 -15 -19 -98 -11 -90 4 4 9 18 11 30 2 12 5 32 8 45 5
21 1 30 -8 15z"/>
<path d="M467 2927 c-4 -35 -3 -65 3 -75 7 -13 8 -8 3 17 -3 18 -2 36 3 40 5
3 7 22 4 41 -5 32 -6 30 -13 -23z"/>
<path d="M4521 2952 c0 -7 -5 -11 -10 -8 -11 7 -9 -27 2 -35 15 -11 21 -77 23
-267 1 -106 4 -196 8 -199 11 -12 5 352 -8 437 -8 47 -14 79 -15 72z"/>
<path d="M500 2919 c0 -5 5 -7 10 -4 6 3 10 8 10 11 0 2 -4 4 -10 4 -5 0 -10
-5 -10 -11z"/>
<path d="M453 2785 c0 -33 2 -45 4 -27 2 18 2 45 0 60 -2 15 -4 0 -4 -33z"/>
<path d="M442 2625 l1 -90 7 80 c4 44 3 84 -1 90 -5 5 -8 -30 -7 -80z"/>
<path d="M463 2585 c0 -22 2 -30 4 -17 2 12 2 30 0 40 -3 9 -5 -1 -4 -23z"/>
<path d="M861 2515 c-191 -99 -296 -179 -351 -265 -20 -33 -21 -33 -16 -7 4
15 2 27 -3 27 -5 0 -12 8 -15 18 -3 9 -2 -1 1 -23 4 -22 6 -70 4 -107 -1 -48
3 -76 15 -100 16 -30 52 -86 64 -98 3 -3 6 -16 8 -30 1 -14 7 -26 12 -28 5 -2
7 -9 5 -15 -2 -7 9 -39 24 -72 21 -44 28 -53 27 -33 0 14 -5 24 -9 21 -5 -3
-7 1 -5 8 1 8 -6 26 -15 40 -10 15 -17 31 -15 35 1 5 -4 20 -11 32 -7 13 -11
26 -9 28 3 2 30 -10 60 -26 163 -88 440 -130 848 -128 218 0 433 12 315 17
-45 1 -48 3 -32 15 17 14 17 15 -5 22 -22 8 -22 8 7 15 17 4 -64 5 -180 2
-437 -11 -782 37 -939 132 -70 42 -93 66 -107 116 -31 103 128 274 400 430
128 73 86 59 -78 -26z m896 -681 c-3 -3 -12 -4 -19 -1 -8 3 -5 6 6 6 11 1 17
-2 13 -5z"/>
<path d="M3500 2460 c-47 -47 -134 -131 -193 -186 -108 -100 -109 -100 -90
-122 l18 -22 160 49 c221 67 250 77 248 93 0 7 -8 45 -16 83 -9 39 -19 98 -23
133 -3 34 -9 61 -13 60 -3 0 -44 -40 -91 -88z"/>
<path d="M457 2511 c-9 -42 3 -190 15 -197 5 -3 7 5 4 18 -11 54 -16 129 -9
125 5 -3 7 11 5 31 -5 56 -8 60 -15 23z"/>
<path d="M4524 2398 c-10 -24 -11 -94 -2 -104 3 -2 8 23 12 57 8 67 5 82 -10
47z"/>
<path d="M3998 2363 c6 -2 10 -9 6 -14 -3 -5 2 -9 10 -9 9 0 16 4 16 9 0 9
-25 22 -38 20 -4 0 -1 -3 6 -6z"/>
<path d="M4501 2283 c0 -4 4 -17 9 -28 8 -19 9 -19 9 2 1 12 -3 25 -9 28 -5 3
-10 3 -9 -2z"/>
<path d="M4483 2245 c8 -16 17 -37 21 -45 3 -8 4 -1 0 15 -3 17 -12 37 -21 45
-14 14 -14 12 0 -15z"/>
<path d="M3468 2111 l-198 -66 6 -27 c3 -15 16 -54 28 -85 l22 -58 124 -3 c96
-2 131 1 159 13 68 31 76 34 115 49 21 9 43 13 48 10 14 -9 6 15 -47 131 -25
55 -48 100 -52 101 -5 1 -97 -28 -205 -65z"/>
<path d="M4437 2103 c-4 -3 -7 -11 -7 -17 0 -6 5 -5 12 2 6 6 9 14 7 17 -3 3
-9 2 -12 -2z"/>
<path d="M4410 2055 c-11 -13 -10 -14 4 -9 9 3 16 10 16 15 0 13 -6 11 -20 -6z"/>
<path d="M3004 1976 c-44 -12 -94 -30 -110 -41 l-29 -19 40 -7 c22 -4 77 -10
123 -14 l82 -7 0 56 c0 64 8 62 -106 32z"/>
<path d="M4434 1963 c-3 -12 -12 -19 -18 -17 -7 3 -19 -3 -27 -12 -13 -16 -12
-16 9 -5 12 6 22 7 22 2 0 -5 -6 -12 -12 -14 -9 -4 -8 -6 2 -6 15 -1 45 58 34
68 -2 3 -7 -4 -10 -16z"/>
<path d="M1990 1952 c0 -11 -3 -27 -6 -36 -5 -13 2 -16 42 -15 27 1 60 4 74 8
l24 7 -30 21 c-16 12 -46 24 -67 28 -33 6 -37 5 -37 -13z"/>
<path d="M4406 1882 c-4 -11 -13 -23 -21 -26 -17 -6 -20 -26 -5 -26 11 0 44
59 37 67 -3 2 -8 -4 -11 -15z"/>
<path d="M2438 1862 c-27 -2 -48 -7 -48 -12 0 -4 23 -23 51 -40 52 -31 52 -32
85 -14 43 24 80 52 74 57 -8 7 -109 12 -162 9z"/>
<path d="M2060 1816 l-105 -11 -17 -75 c-22 -93 -36 -286 -20 -277 5 4 12 2
14 -4 6 -19 120 43 421 227 26 16 47 32 47 35 0 3 -37 31 -82 63 -92 62 -82
61 -258 42z"/>
<path d="M2675 1776 c-44 -31 -81 -60 -82 -64 -4 -10 453 -292 474 -292 3 0
12 -8 19 -17 11 -16 9 -20 -16 -33 -19 -10 -26 -20 -22 -27 10 -16 346 -178
470 -227 51 -20 130 -48 177 -63 75 -24 82 -28 67 -41 -11 -9 -7 -8 10 2 25
15 33 15 100 -1 45 -10 122 -16 198 -17 110 -1 131 2 175 22 99 46 130 98 123
213 -4 70 -10 89 -63 196 -70 141 -118 211 -220 318 -76 80 -76 80 -32 20 66
-90 191 -283 220 -340 139 -277 22 -417 -303 -361 -51 9 -96 19 -99 21 -2 3
37 47 87 98 138 140 258 295 249 319 -4 10 -6 9 -6 -1 -1 -11 -4 -11 -18 0
-16 13 -17 12 -5 -3 14 -17 3 -43 -36 -90 -13 -16 -16 -16 -26 -2 -10 13 -12
13 -12 -5 0 -11 4 -17 8 -15 4 3 8 1 8 -5 0 -5 -7 -14 -16 -19 -9 -5 -17 -13
-17 -18 -1 -5 -5 -8 -9 -7 -5 2 -7 -3 -5 -10 1 -6 -6 -11 -15 -11 -10 1 -14
-4 -11 -12 3 -9 0 -13 -8 -11 -8 2 -11 2 -6 0 13 -8 7 -25 -8 -20 -8 4 -17 1
-21 -5 -4 -7 -3 -8 4 -4 7 4 12 4 12 -1 0 -12 -71 -78 -83 -78 -6 0 -16 -9
-22 -20 -14 -27 -52 -65 -66 -65 -33 0 -344 104 -363 121 -6 5 -16 9 -23 9
-13 0 -292 127 -305 139 -4 3 -14 71 -22 151 -9 80 -20 161 -26 180 -5 19 -10
49 -10 66 l0 31 -125 12 c-69 6 -146 14 -173 17 -45 5 -51 3 -127 -50z"/>
<path d="M4375 1809 c-4 -6 -5 -12 -2 -15 2 -3 7 2 10 11 7 17 1 20 -8 4z"/>
<path d="M3360 1771 c0 -6 5 -13 10 -16 6 -3 10 1 10 9 0 9 -4 16 -10 16 -5 0
-10 -4 -10 -9z"/>
<path d="M3410 1768 c28 -12 50 -11 65 3 5 5 -10 9 -40 8 -45 0 -48 -1 -25
-11z"/>
<path d="M4345 1761 c5 -15 3 -21 -3 -17 -6 3 -13 2 -16 -3 -4 -5 1 -8 10 -7
18 3 39 34 30 43 -3 4 -6 0 -6 -8 0 -12 -2 -11 -11 1 -8 12 -9 10 -4 -9z"/>
<path d="M689 1653 c54 -105 57 -109 64 -88 5 10 3 14 -5 9 -7 -5 -9 1 -6 20
3 14 1 26 -3 26 -5 0 -9 -6 -9 -12 -1 -7 -7 -2 -15 12 -8 14 -12 34 -9 45 4
14 3 16 -4 7 -7 -10 -12 -6 -22 18 -7 17 -17 33 -22 36 -5 3 9 -29 31 -73z"/>
<path d="M4312 1688 c-14 -14 -16 -42 -3 -34 7 5 23 46 17 46 -1 0 -7 -5 -14
-12z"/>
<path d="M2439 1617 c-122 -74 -275 -171 -284 -180 -6 -6 -1 -7 15 -2 13 4 43
9 65 10 48 4 234 -11 257 -20 11 -4 24 -35 37 -88 18 -77 20 -79 20 -37 1 25
4 62 7 82 l7 37 144 -1 c79 0 146 2 149 5 3 2 -26 24 -63 48 -83 52 -293 179
-297 179 -1 0 -27 -15 -57 -33z"/>
<path d="M4270 1600 c-11 -22 -18 -40 -15 -40 2 0 14 18 25 40 11 22 18 40 15
40 -2 0 -14 -18 -25 -40z"/>
<path d="M782 1529 c-11 -18 -10 -25 13 -55 22 -29 45 -38 45 -18 0 3 -4 3 -9
0 -12 -8 -34 21 -26 34 4 6 3 10 -2 9 -20 -3 -23 2 -13 22 15 27 8 34 -8 8z"/>
<path d="M840 1412 c21 -36 40 -55 47 -47 5 4 3 10 -4 12 -7 2 -10 10 -7 18 5
13 -10 28 -33 31 -9 2 -10 -3 -3 -14z m28 -17 c-3 -3 -9 2 -12 12 -6 14 -5 15
5 6 7 -7 10 -15 7 -18z"/>
<path d="M3015 1360 c3 -5 8 -10 11 -10 2 0 4 5 4 10 0 6 -5 10 -11 10 -5 0
-7 -4 -4 -10z"/>
<path d="M926 1303 c15 -21 64 -75 108 -120 62 -64 86 -83 106 -82 25 2 25 2
1 6 -22 5 -71 48 -71 63 0 4 -10 10 -21 13 -14 4 -20 11 -16 20 3 8 -1 23 -9
34 -13 17 -14 17 -7 -2 7 -18 5 -18 -21 2 -15 12 -41 40 -57 63 -16 22 -32 40
-35 40 -4 0 6 -17 22 -37z"/>
<path d="M3945 1220 c-3 -5 -1 -10 4 -10 6 0 11 5 11 10 0 6 -2 10 -4 10 -3 0
-8 -4 -11 -10z"/>
<path d="M1680 1106 c-14 -6 -28 -14 -31 -18 -7 -11 -45 -19 -82 -19 -17 0
-25 -4 -21 -11 4 -6 -1 -17 -10 -24 -20 -14 -9 -24 34 -29 17 -2 30 1 30 7 0
6 6 5 16 -3 9 -7 23 -14 33 -16 42 -7 159 -20 186 -21 17 0 71 -6 120 -14 50
-9 133 -16 185 -16 l95 -2 -110 29 c-101 26 -279 88 -379 131 -32 13 -46 15
-66 6z"/>
<path d="M3245 1095 c-64 -31 -272 -102 -390 -134 -43 -11 -42 -11 144 5 116
11 271 48 271 66 0 5 14 15 32 22 31 13 31 14 9 25 -12 7 -27 9 -33 5 -8 -5
-9 -2 -5 9 3 10 5 17 4 17 -1 0 -15 -7 -32 -15z"/>
<path d="M2370 1093 c-140 -6 -287 -23 -313 -36 l-28 -15 48 -11 c77 -19 225
-28 403 -24 333 5 473 50 230 73 -124 11 -250 16 -340 13z"/>
<path d="M1222 1033 c-20 -4 -16 -9 35 -47 111 -81 180 -123 180 -109 0 7 -7
13 -16 13 -11 0 -11 3 5 16 18 14 18 15 -3 4 -23 -11 -65 1 -61 18 2 13 -14
42 -24 42 -6 0 -5 -6 2 -15 16 -19 -3 -20 -22 -2 -7 8 -24 20 -37 26 -19 10
-21 15 -10 22 12 7 11 9 -1 10 -8 1 -18 1 -22 0 -13 -2 -9 17 5 22 14 6 1 6
-31 0z"/>
<path d="M3684 979 c0 -34 3 -35 35 -8 18 14 21 22 13 29 -7 6 -10 7 -7 4 6
-9 -14 -34 -27 -34 -6 0 -6 6 1 14 9 10 8 15 -2 19 -9 3 -13 -4 -13 -24z"/>
<path d="M2248 933 c6 -2 18 -2 25 0 6 3 1 5 -13 5 -14 0 -19 -2 -12 -5z"/>
<path d="M3638 933 c-10 -2 -18 -9 -18 -15 0 -5 -7 -7 -16 -4 -8 3 -13 2 -10
-3 6 -10 -41 -44 -61 -44 -7 0 -10 -4 -7 -8 6 -11 -33 -22 -47 -13 -8 4 -9 3
-5 -5 5 -7 -5 -17 -26 -27 -74 -34 -118 -67 -55 -40 69 28 298 170 267 165 -3
-1 -13 -3 -22 -6z"/>
<path d="M1465 850 c3 -5 8 -10 11 -10 2 0 4 5 4 10 0 6 -5 10 -11 10 -5 0 -7
-4 -4 -10z"/>
<path d="M1541 830 c8 -6 7 -9 -2 -12 -9 -3 -2 -11 18 -21 20 -11 34 -13 38
-7 3 6 3 11 -2 12 -4 0 -12 2 -18 3 -5 2 -14 3 -20 4 -5 1 1 8 13 15 24 13 24
13 -7 13 -18 0 -27 -4 -20 -7z"/>
<path d="M3370 800 c-9 -6 -10 -10 -3 -10 6 0 15 5 18 10 8 12 4 12 -15 0z"/>
<path d="M1622 764 c42 -22 231 -94 236 -90 8 9 -10 27 -23 22 -7 -2 -25 2
-40 10 -15 8 -31 14 -36 14 -9 0 -87 33 -121 51 -10 5 -23 9 -30 9 -7 -1 -1
-7 14 -16z"/>
<path d="M3320 749 c0 -5 5 -7 10 -4 6 3 10 8 10 11 0 2 -4 4 -10 4 -5 0 -10
-5 -10 -11z"/>
<path d="M1730 746 c0 -2 7 -7 16 -10 8 -3 12 -2 9 4 -6 10 -25 14 -25 6z"/>
<path d="M3248 743 c7 -3 16 -2 19 1 4 3 -2 6 -13 5 -11 0 -14 -3 -6 -6z"/>
<path d="M3242 719 c-13 -5 -29 -6 -35 -2 -7 3 -8 2 -4 -2 10 -11 -69 -35 -92
-28 -11 3 -12 2 -3 -4 8 -6 -3 -13 -35 -20 -27 -7 -61 -15 -78 -19 -16 -4 -37
-8 -45 -10 -55 -11 -121 -32 -103 -33 49 -2 409 102 432 124 7 8 -12 5 -37 -6z"/>
<path d="M3035 680 c-3 -6 1 -7 9 -4 18 7 21 14 7 14 -6 0 -13 -4 -16 -10z"/>
<path d="M2998 663 c7 -3 16 -2 19 1 4 3 -2 6 -13 5 -11 0 -14 -3 -6 -6z"/>
<path d="M1950 645 c25 -8 48 -11 52 -7 4 4 0 8 -10 9 -9 1 -33 5 -52 8 -30 4
-29 3 10 -10z"/>
<path d="M2028 623 c6 -2 18 -2 25 0 6 3 1 5 -13 5 -14 0 -19 -2 -12 -5z"/>
<path d="M2120 606 c73 -18 208 -29 165 -14 -16 5 -51 10 -77 9 -27 0 -48 3
-48 7 0 4 -21 8 -48 9 l-47 2 55 -13z"/>
<path d="M2328 603 c6 -2 18 -2 25 0 6 3 1 5 -13 5 -14 0 -19 -2 -12 -5z"/>
<path d="M2618 593 c7 -3 16 -2 19 1 4 3 -2 6 -13 5 -11 0 -14 -3 -6 -6z"/>
<path d="M2710 590 c8 -5 20 -10 25 -10 6 0 3 5 -5 10 -8 5 -19 10 -25 10 -5
0 -3 -5 5 -10z"/>
<path d="M2788 593 c6 -2 18 -2 25 0 6 3 1 5 -13 5 -14 0 -19 -2 -12 -5z"/>
<path d="M2405 580 c-4 -6 42 -10 121 -10 70 0 125 2 123 4 -10 9 -239 14
-244 6z"/>
<path d="M2315 529 c-181 -9 -294 -23 -328 -41 -21 -11 -21 -11 3 -21 126 -50
732 -61 968 -17 52 9 60 16 41 34 -23 21 -115 36 -269 41 -80 3 -167 7 -195 9
-27 1 -126 -1 -220 -5z"/>
</g>
</svg>
